# xmcd CD database file
#
# Track frame offsets:
#	182
#	12127
#	22537
#	34615
#	49365
#	61067
#	72737
#	84200
#	97852
#	109777
#
# Disc length: 1660 seconds
#
# Revision: 0
# Processed by: cddbd v1.5.2PL0 Copyright (c) Steve Scherf et al.
# Submitted via: CDex 1.51
#
DISCID=6c067a0a
DTITLE=Donna Fargo - U.S. of America
DYEAR=1900
DGENRE=Country
TTITLE0=U.S. Of America
TTITLE1=Hello Little Bluebird
TTITLE2=Funny Face
TTITLE3=I'll Try A Little Bit Harder
TTITLE4=The Happiest Girl In The Whole U.S.A.
TTITLE5=It Do Feel Good
TTITLE6=Superman
TTITLE7=You Can't Be A Beacon If Your Light Don't Shine
TTITLE8=Little Girl Gone
TTITLE9=You Were Always There
EXTD=
EXTT0=
EXTT1=
EXTT2=
EXTT3=
EXTT4=
EXTT5=
EXTT6=
EXTT7=
EXTT8=
EXTT9=
PLAYORDER=
